RBDS028runT25_grf
version=1
nRows=30
nColumns=19
inDegrees=no
endheader
time	ground_force_r_vx	ground_force_r_vy	ground_force_r_vz	ground_force_r_px	ground_force_r_py	ground_force_r_pz	ground_force_r_mx	ground_force_r_my	ground_force_r_mz	ground_force_l_vx	ground_force_l_vy	ground_force_l_vz	ground_force_l_px	ground_force_l_py	ground_force_l_pz	ground_force_l_mx	ground_force_l_my	ground_force_l_mz
      7.49900000	     79.57122709	    274.63081963	     -0.21551881	      1.81242493	      0.00000000	      1.08660006	      0.00000000	      2.95688877	     -0.00000000	      0.00000000	      0.00000000	      0.00000000	      0.00000000	      0.00000000	      0.00000000	      0.00000000	      0.00000000	      0.00000000
      7.50000000	     77.78863136	    264.74139889	     -0.23969261	      1.81129017	      0.00000000	      1.08660605	      0.00000000	      2.92464756	     -0.00000000	      0.00000000	      0.00000000	      0.00000000	      0.00000000	      0.00000000	      0.00000000	      0.00000000	      0.00000000	      0.00000000
      7.50100000	     75.98891402	    255.50536203	     -0.29519554	      1.81029707	      0.00000000	      1.08661456	      0.00000000	      2.89171967	     -0.00000000	      0.00000000	      0.00000000	      0.00000000	      0.00000000	      0.00000000	      0.00000000	      0.00000000	      0.00000000	      0.00000000
      7.50200000	     74.18919669	    246.26932517	     -0.35069848	      1.80930398	      0.00000000	      1.08662308	      0.00000000	      2.85879178	     -0.00000000	      0.00000000	      0.00000000	      0.00000000	      0.00000000	      0.00000000	      0.00000000	      0.00000000	      0.00000000	      0.00000000
      7.50300000	     72.38947935	    237.03328831	     -0.40620141	      1.80831089	      0.00000000	      1.08663159	      0.00000000	      2.82586388	     -0.00000000	      0.00000000	      0.00000000	      0.00000000	      0.00000000	      0.00000000	      0.00000000	      0.00000000	      0.00000000	      0.00000000
      7.50400000	     70.59542273	    228.24521699	     -0.47906312	      1.80741142	      0.00000000	      1.08664147	      0.00000000	      2.79242163	     -0.00000000	      0.00000000	      0.00000000	      0.00000000	      0.00000000	      0.00000000	      0.00000000	      0.00000000	      0.00000000	      0.00000000
      7.50500000	     68.80419646	    219.68112843	     -0.56060423	      1.80655877	      0.00000000	      1.08665203	      0.00000000	      2.75872221	     -0.00000000	      0.00000000	      0.00000000	      0.00000000	      0.00000000	      0.00000000	      0.00000000	      0.00000000	      0.00000000	      0.00000000
      7.50600000	     67.01297019	    211.11703987	     -0.64214534	      1.80570612	      0.00000000	      1.08666259	      0.00000000	      2.72502278	     -0.00000000	      0.00000000	      0.00000000	      0.00000000	      0.00000000	      0.00000000	      0.00000000	      0.00000000	      0.00000000	      0.00000000
      7.50700000	     65.23283789	    202.78081421	     -0.73056395	      1.80489896	      0.00000000	      1.08667368	      0.00000000	      2.69108057	     -0.00000000	      0.00000000	      0.00000000	      0.00000000	      0.00000000	      0.00000000	      0.00000000	      0.00000000	      0.00000000	      0.00000000
      7.50800000	     63.47489352	    194.90031437	     -0.83273760	      1.80418277	      0.00000000	      1.08668581	      0.00000000	      2.65665281	     -0.00000000	      0.00000000	      0.00000000	      0.00000000	      0.00000000	      0.00000000	      0.00000000	      0.00000000	      0.00000000	      0.00000000
      7.50900000	     61.71694916	    187.01981453	     -0.93491124	      1.80346658	      0.00000000	      1.08669794	      0.00000000	      2.62222505	     -0.00000000	      0.00000000	      0.00000000	      0.00000000	      0.00000000	      0.00000000	      0.00000000	      0.00000000	      0.00000000	      0.00000000
      7.51000000	     59.95900479	    179.13931469	     -1.03708489	      1.80275038	      0.00000000	      1.08671007	      0.00000000	      2.58779729	     -0.00000000	      0.00000000	      0.00000000	      0.00000000	      0.00000000	      0.00000000	      0.00000000	      0.00000000	      0.00000000	      0.00000000
      7.51100000	     58.25776466	    171.94719814	     -1.15449116	      1.80216395	      0.00000000	      1.08672328	      0.00000000	      2.55281804	     -0.00000000	      0.00000000	      0.00000000	      0.00000000	      0.00000000	      0.00000000	      0.00000000	      0.00000000	      0.00000000	      0.00000000
      7.51200000	     56.55652453	    164.75508159	     -1.27189744	      1.80157751	      0.00000000	      1.08673650	      0.00000000	      2.51783878	     -0.00000000	      0.00000000	      0.00000000	      0.00000000	      0.00000000	      0.00000000	      0.00000000	      0.00000000	      0.00000000	      0.00000000
      7.51300000	     54.85528440	    157.56296504	     -1.38930371	      1.80099107	      0.00000000	      1.08674971	      0.00000000	      2.48285953	     -0.00000000	      0.00000000	      0.00000000	      0.00000000	      0.00000000	      0.00000000	      0.00000000	      0.00000000	      0.00000000	      0.00000000
      7.51400000	     53.20618666	    150.82847902	     -1.51335359	      1.80048498	      0.00000000	      1.08676334	      0.00000000	      2.44771642	     -0.00000000	      0.00000000	      0.00000000	      0.00000000	      0.00000000	      0.00000000	      0.00000000	      0.00000000	      0.00000000	      0.00000000
      7.51500000	     51.58316012	    144.32280827	     -1.64072527	      1.80001907	      0.00000000	      1.08677717	      0.00000000	      2.41249140	     -0.00000000	      0.00000000	      0.00000000	      0.00000000	      0.00000000	      0.00000000	      0.00000000	      0.00000000	      0.00000000	      0.00000000
      7.51600000	     49.96013358	    137.81713751	     -1.76809694	      1.79955316	      0.00000000	      1.08679099	      0.00000000	      2.37726637	     -0.00000000	      0.00000000	      0.00000000	      0.00000000	      0.00000000	      0.00000000	      0.00000000	      0.00000000	      0.00000000	      0.00000000
      7.51700000	     48.36953715	    131.53744222	     -1.89712228	      1.79912362	      0.00000000	      1.08680488	      0.00000000	      2.34209934	     -0.00000000	      0.00000000	      0.00000000	      0.00000000	      0.00000000	      0.00000000	      0.00000000	      0.00000000	      0.00000000	      0.00000000
      7.51800000	     46.84380093	    125.70969785	     -2.02945493	      1.79876681	      0.00000000	      1.08681887	      0.00000000	      2.30704831	     -0.00000000	      0.00000000	      0.00000000	      0.00000000	      0.00000000	      0.00000000	      0.00000000	      0.00000000	      0.00000000	      0.00000000
      7.51900000	     45.31806470	    119.88195349	     -2.16178757	      1.79841000	      0.00000000	      1.08683287	      0.00000000	      2.27199729	     -0.00000000	      0.00000000	      0.00000000	      0.00000000	      0.00000000	      0.00000000	      0.00000000	      0.00000000	      0.00000000	      0.00000000
      7.52000000	     43.79232848	    114.05420912	     -2.29412022	      1.79805320	      0.00000000	      1.08684687	      0.00000000	      2.23694626	     -0.00000000	      0.00000000	      0.00000000	      0.00000000	      0.00000000	      0.00000000	      0.00000000	      0.00000000	      0.00000000	      0.00000000
      7.52100000	     42.38005440	    108.88947814	     -2.42679985	      1.79779235	      0.00000000	      1.08686062	      0.00000000	      2.20257870	     -0.00000000	      0.00000000	      0.00000000	      0.00000000	      0.00000000	      0.00000000	      0.00000000	      0.00000000	      0.00000000	      0.00000000
      7.52200000	     40.96778031	    103.72474715	     -2.55947949	      1.79753151	      0.00000000	      1.08687438	      0.00000000	      2.16821114	     -0.00000000	      0.00000000	      0.00000000	      0.00000000	      0.00000000	      0.00000000	      0.00000000	      0.00000000	      0.00000000	      0.00000000
      7.52300000	     39.55550623	     98.56001617	     -2.69215912	      1.79727066	      0.00000000	      1.08688814	      0.00000000	      2.13384358	     -0.00000000	      0.00000000	      0.00000000	      0.00000000	      0.00000000	      0.00000000	      0.00000000	      0.00000000	      0.00000000	      0.00000000
      7.52400000	     38.22744901	     93.82324249	     -2.82233293	      1.79706426	      0.00000000	      1.08690150	      0.00000000	      2.10030903	     -0.00000000	      0.00000000	      0.00000000	      0.00000000	      0.00000000	      0.00000000	      0.00000000	      0.00000000	      0.00000000	      0.00000000
      7.52500000	     36.94150021	     89.30044746	     -2.95125383	      1.79688508	      0.00000000	      1.08691466	      0.00000000	      2.06719100	     -0.00000000	      0.00000000	      0.00000000	      0.00000000	      0.00000000	      0.00000000	      0.00000000	      0.00000000	      0.00000000	      0.00000000
      7.52600000	     35.65555142	     84.77765242	     -3.08017473	      1.79670589	      0.00000000	      1.08692782	      0.00000000	      2.03407297	     -0.00000000	      0.00000000	      0.00000000	      0.00000000	      0.00000000	      0.00000000	      0.00000000	      0.00000000	      0.00000000	      0.00000000
      7.52700000	     34.41479048	     80.45984663	     -3.20667703	      1.79654900	      0.00000000	      1.08694069	      0.00000000	      2.00156554	     -0.00000000	      0.00000000	      0.00000000	      0.00000000	      0.00000000	      0.00000000	      0.00000000	      0.00000000	      0.00000000	      0.00000000
      7.52800000	     33.26440524	     76.55201932	     -3.32834211	      1.79643667	      0.00000000	      1.08695296	      0.00000000	      1.97027934	     -0.00000000	      0.00000000	      0.00000000	      0.00000000	      0.00000000	      0.00000000	      0.00000000	      0.00000000	      0.00000000	      0.00000000
